<svg width="382" height="467" viewBox="0 0 382 467" fill="none" xmlns="http://www.w3.org/2000/svg">
<path d="M3.24985 391.55C2.47062 391.897 2.45458 392.997 3.22338 393.365L18.9524 400.896C19.6105 401.211 20.3743 400.737 20.3849 400.007L20.5982 385.374C20.6089 384.644 19.8592 384.15 19.1922 384.447L3.24985 391.55Z" fill="black"/>
<path d="M372.57 69.4928C354.519 151.071 317.433 112.076 223.885 170.828C171.915 203.467 141.807 291.116 172.68 276.453C203.553 261.79 132.875 213.668 109.397 272.353C86.7575 328.944 114.839 355.467 84.8195 378.315C61.211 396.284 27.4592 393.22 14.7097 392.602" stroke="black"/>
</svg>
