<svg width="64" height="66" viewBox="0 0 64 66" fill="none" xmlns="http://www.w3.org/2000/svg">
<path d="M54.025 49.7193H9.97503C8.96253 49.7193 8.15002 48.8815 8.15002 47.8373V45.8522C8.15002 32.2912 18.85 21.2568 32 21.2568C34.4875 21.2568 36.9375 21.6564 39.2875 22.4299C40.25 22.7521 40.775 23.8092 40.475 24.8018C40.1625 25.7943 39.1375 26.3357 38.175 26.0264C36.1875 25.3689 34.1125 25.0338 32 25.0338C20.8625 25.0338 11.8 34.3795 11.8 45.865V45.9682H52.2V45.865C52.2 40.2705 50.075 35.0111 46.225 31.0666C45.5125 30.3318 45.5 29.1459 46.2125 28.3982C46.925 27.6635 48.075 27.6506 48.8 28.3854C53.35 33.0389 55.8625 39.2393 55.8625 45.8522V47.8373C55.85 48.8815 55.0375 49.7193 54.025 49.7193Z" fill="#F0BF5F"/>
<path d="M32.0001 24.5825C30.9876 24.5825 30.175 23.7446 30.175 22.7004V17.3637C30.175 16.3196 30.9876 15.4817 32.0001 15.4817C33.0126 15.4817 33.8251 16.3196 33.8251 17.3637V22.7004C33.8251 23.7446 33.0126 24.5825 32.0001 24.5825Z" fill="#F0BF5F"/>
<path d="M36.4751 18.8075H27.5251C26.5126 18.8075 25.7001 17.9696 25.7001 16.9255C25.7001 15.8813 26.5126 15.0435 27.5251 15.0435H36.4751C37.4876 15.0435 38.3001 15.8813 38.3001 16.9255C38.3001 17.9696 37.4876 18.8075 36.4751 18.8075Z" fill="#F0BF5F"/>
<path d="M47.9875 47.8372H16V55.7649H47.9875V47.8372Z" fill="#CEE8FA"/>
<path d="M48.0001 57.6469H16C14.9875 57.6469 14.175 56.809 14.175 55.7648V47.8371C14.175 46.793 14.9875 45.9551 16 45.9551H48.0001C49.0126 45.9551 49.8251 46.793 49.8251 47.8371V55.7648C49.8251 56.809 49.0001 57.6469 48.0001 57.6469ZM17.8375 53.8828H46.1751V49.7191H17.8375V53.8828Z" fill="#F0BF5F"/>
<path d="M54.2375 61.8105H9.76248C7.63748 61.8105 5.91248 60.0316 5.91248 57.8402C5.91248 55.6488 7.63748 53.8699 9.76248 53.8699H54.2375C56.3625 53.8699 58.0875 55.6488 58.0875 57.8402C58.075 60.0316 56.3625 61.8105 54.2375 61.8105Z" fill="#CEE8FA"/>
<path d="M54.2375 63.6925H9.76252C6.63752 63.6925 4.08752 61.0757 4.08752 57.8401C4.08752 54.6046 6.62502 51.9878 9.76252 51.9878H54.2375C57.3625 51.9878 59.9125 54.6175 59.9125 57.8401C59.9 61.0757 57.3625 63.6925 54.2375 63.6925ZM9.76252 55.7647C8.65002 55.7647 7.75002 56.6929 7.75002 57.8401C7.75002 58.9874 8.65002 59.9155 9.76252 59.9155H54.2375C55.35 59.9155 56.25 58.9874 56.25 57.8401C56.25 56.6929 55.35 55.7647 54.2375 55.7647H9.76252Z" fill="#2D527C"/>
<path d="M32.0001 9.73237C30.9876 9.73237 30.175 8.89448 30.175 7.85034V4.1894C30.175 3.14526 30.9876 2.30737 32.0001 2.30737C33.0126 2.30737 33.8251 3.14526 33.8251 4.1894V7.85034C33.8251 8.89448 33.0126 9.73237 32.0001 9.73237Z" fill="#2D527C"/>
<path d="M62.175 35.3073H58.625C57.6125 35.3073 56.8 34.4694 56.8 33.4252C56.8 32.3811 57.6125 31.5432 58.625 31.5432H62.175C63.1875 31.5432 64 32.3811 64 33.4252C64 34.4694 63.1875 35.3073 62.175 35.3073Z" fill="#2D527C"/>
<path d="M5.375 35.3073H1.825C0.8125 35.3073 0 34.4694 0 33.4252C0 32.3811 0.8125 31.5432 1.825 31.5432H5.375C6.3875 31.5432 7.2 32.3811 7.2 33.4252C7.2 34.4694 6.3875 35.3073 5.375 35.3073Z" fill="#2D527C"/>
<path d="M49.5375 17.2217C49.075 17.2217 48.6 17.0413 48.25 16.6674C47.5375 15.9327 47.5375 14.7338 48.25 13.9991L50.75 11.4209C51.4625 10.6862 52.625 10.6862 53.3375 11.4209C54.05 12.1557 54.05 13.3545 53.3375 14.0893L50.825 16.6803C50.475 17.0413 50 17.2217 49.5375 17.2217Z" fill="#2D527C"/>
<path d="M14.4625 17.2219C14 17.2219 13.525 17.0415 13.175 16.6676L10.6625 14.0766C9.95005 13.3418 9.95005 12.143 10.6625 11.4083C11.375 10.6735 12.5375 10.6735 13.25 11.4083L15.7625 13.9993C16.475 14.734 16.475 15.9329 15.7625 16.6676C15.4 17.0415 14.9375 17.2219 14.4625 17.2219Z" fill="#2D527C"/>
</svg>
