<svg width="67" height="66" viewBox="0 0 67 66" fill="none" xmlns="http://www.w3.org/2000/svg">
<path d="M60.5094 61.5527H6.49062C2.91816 61.5527 0 58.691 0 55.159V10.841C0 7.30898 2.91816 4.44727 6.49062 4.44727H41.9404C42.9611 4.44727 43.7855 5.25937 43.7855 6.26484C43.7855 7.27031 42.9611 8.08242 41.9404 8.08242H6.49062C4.94648 8.08242 3.69023 9.31992 3.69023 10.841V55.159C3.69023 56.6801 4.94648 57.9176 6.49062 57.9176H60.5094C62.0535 57.9176 63.3098 56.6801 63.3098 55.159V10.841C63.3098 9.31992 62.0535 8.08242 60.5094 8.08242H52.5793C51.5586 8.08242 50.7342 7.27031 50.7342 6.26484C50.7342 5.25937 51.5586 4.44727 52.5793 4.44727H60.5094C64.0949 4.44727 67 7.32187 67 10.841V55.159C67 58.691 64.0818 61.5527 60.5094 61.5527Z" fill="#2D527C"/>
<path d="M53.8748 53.5347H18.1371C17.1164 53.5347 16.292 52.7226 16.292 51.7171C16.292 50.7116 17.1164 49.8995 18.1371 49.8995H53.8748C54.5814 49.8995 55.1572 49.3323 55.1572 48.6362V17.3765C55.1572 16.6804 54.5814 16.1132 53.8748 16.1132H18.1371C17.1164 16.1132 16.292 15.3011 16.292 14.2956C16.292 13.2901 17.1164 12.478 18.1371 12.478H53.8748C56.6229 12.478 58.8605 14.6823 58.8605 17.3894V48.6362C58.8605 51.3304 56.6229 53.5347 53.8748 53.5347Z" fill="#2D527C"/>
<path d="M9.98458 53.5349C8.96388 53.5349 8.13947 52.7227 8.13947 51.7173V14.2829C8.13947 13.2774 8.96388 12.4653 9.98458 12.4653C11.0053 12.4653 11.8297 13.2774 11.8297 14.2829V51.7173C11.8428 52.7227 11.0053 53.5349 9.98458 53.5349Z" fill="#2D527C"/>
<path d="M42.6733 47.502C34.56 47.502 27.9516 40.9922 27.9516 33C27.9516 25.0078 34.56 18.498 42.6733 18.498C50.7866 18.498 57.395 25.0078 57.395 33C57.395 40.9922 50.7866 47.502 42.6733 47.502ZM42.6733 22.1332C36.5883 22.1332 31.6418 27.0059 31.6418 33C31.6418 38.9941 36.5883 43.8668 42.6733 43.8668C48.7582 43.8668 53.7047 38.9941 53.7047 33C53.7047 27.0059 48.7582 22.1332 42.6733 22.1332ZM42.6733 39.5613C38.9961 39.5613 36.0125 36.6223 36.0125 33C36.0125 29.3777 38.9961 26.4387 42.6733 26.4387C46.3504 26.4387 49.334 29.3777 49.334 33C49.334 36.6223 46.3504 39.5613 42.6733 39.5613ZM42.6733 30.0738C41.0375 30.0738 39.7028 31.3887 39.7028 33C39.7028 34.6113 41.0375 35.9262 42.6733 35.9262C44.309 35.9262 45.6438 34.6113 45.6438 33C45.6438 31.3887 44.309 30.0738 42.6733 30.0738Z" fill="#F0BF5F"/>
<path d="M18.124 39.7805H9.98456V45.6715H18.124V39.7805Z" fill="#CEE8FA"/>
<path d="M18.1371 47.4891H9.98458C8.96388 47.4891 8.13947 46.677 8.13947 45.6715V39.7805C8.13947 38.775 8.96388 37.9629 9.98458 37.9629H18.124C19.1447 37.9629 19.9692 38.775 19.9692 39.7805V45.6715C19.9822 46.677 19.1578 47.4891 18.1371 47.4891ZM11.8428 43.8539H16.292V41.598H11.8428V43.8539Z" fill="#2D527C"/>
<path d="M18.124 20.3286H9.98456V26.2196H18.124V20.3286Z" fill="#CEE8FA"/>
<path d="M18.1371 28.0372H9.98458C8.96388 28.0372 8.13947 27.225 8.13947 26.2196V20.3286C8.13947 19.3231 8.96388 18.511 9.98458 18.511H18.124C19.1447 18.511 19.9692 19.3231 19.9692 20.3286V26.2196C19.9822 27.225 19.1578 28.0372 18.1371 28.0372ZM11.8428 24.402H16.292V22.1461H11.8428V24.402Z" fill="#2D527C"/>
<path d="M33.9842 43.377C33.5131 43.377 33.042 43.1965 32.6756 42.8484C31.9559 42.1395 31.9559 40.9793 32.6756 40.2703L37.9623 35.0625C38.682 34.3535 39.8598 34.3535 40.5795 35.0625C41.2992 35.7715 41.2992 36.9316 40.5795 37.6406L35.2928 42.8484C34.9264 43.1965 34.4553 43.377 33.9842 43.377Z" fill="#F0BF5F"/>
<path d="M46.4158 31.1309C45.9447 31.1309 45.4736 30.9504 45.1072 30.6024C44.3875 29.8934 44.3875 28.7332 45.1072 28.0243L50.0537 23.1516C50.7734 22.4426 51.9512 22.4426 52.6709 23.1516C53.3906 23.8606 53.3906 25.0208 52.6709 25.7297L47.7244 30.6024C47.3711 30.9504 46.8869 31.1309 46.4158 31.1309Z" fill="#F0BF5F"/>
<path d="M38.8391 31.0407C38.368 31.0407 37.8969 30.8602 37.5305 30.5122L32.6756 25.7297C31.9559 25.0208 31.9559 23.8606 32.6756 23.1516C33.3953 22.4426 34.5731 22.4426 35.2928 23.1516L40.1477 27.934C40.8674 28.643 40.8674 29.8032 40.1477 30.5122C39.7944 30.8731 39.3102 31.0407 38.8391 31.0407Z" fill="#F0BF5F"/>
<path d="M51.3623 43.3771C50.8912 43.3771 50.4201 43.1966 50.0537 42.8486L45.1334 38.0017C44.4137 37.2927 44.4137 36.1326 45.1334 35.4236C45.8531 34.7146 47.0309 34.7146 47.7506 35.4236L52.6709 40.2705C53.3906 40.9794 53.3906 42.1396 52.6709 42.8486C52.3045 43.1966 51.8334 43.3771 51.3623 43.3771Z" fill="#F0BF5F"/>
</svg>
