<svg width="66" height="66" viewBox="0 0 66 66" fill="none" xmlns="http://www.w3.org/2000/svg">
<g clip-path="url(#clip0_96182_462)">
<path d="M15.6364 60.3153H11.1891C10.1966 60.3153 9.39734 59.5161 9.39734 58.5235C9.39734 57.5309 10.1966 56.7317 11.1891 56.7317H15.6364C16.629 56.7317 17.4282 57.5309 17.4282 58.5235C17.4282 59.5161 16.629 60.3153 15.6364 60.3153Z" fill="#F0BF5F"/>
<path d="M64.2083 60.3153H59.4903C58.4977 60.3153 57.6985 59.5161 57.6985 58.5235C57.6985 57.5309 58.4977 56.7317 59.4903 56.7317H64.2083C65.2008 56.7317 66 57.5309 66 58.5235C66 59.5161 65.2008 60.3153 64.2083 60.3153Z" fill="#F0BF5F"/>
<path d="M62.2361 60.0961H59.4904C58.4978 60.0961 57.6986 59.2969 57.6986 58.3043C57.6986 57.3117 58.4978 56.5125 59.4904 56.5125H60.4443V55.7262C60.4443 52.0652 58.8845 49.1133 55.9326 47.1797C53.7798 45.7746 51.047 45.027 48.0306 45.027H21.9013C19.5165 45.027 17.4283 46.7156 16.9384 49.0617L15.3658 56.5125H15.9072C16.8997 56.5125 17.699 57.3117 17.699 58.3043C17.699 59.2969 16.8997 60.0961 15.9072 60.0961H13.1615C12.62 60.0961 12.1044 59.8512 11.7693 59.4387C11.4341 59.0133 11.2923 58.4719 11.4083 57.9434L13.4322 48.327C14.27 44.3437 17.8408 41.4434 21.9142 41.4434H48.0435C51.756 41.4434 55.172 42.3844 57.9048 44.1762C61.8622 46.7672 64.0408 50.8664 64.0408 55.7262V58.3043C64.0279 59.2969 63.2286 60.0961 62.2361 60.0961Z" fill="#F0BF5F"/>
<path d="M41.959 60.0961H28.282C27.2895 60.0961 26.4902 59.2968 26.4902 58.3042C26.4902 57.3117 27.2895 56.5125 28.282 56.5125H41.9719C42.9645 56.5125 43.7637 57.3117 43.7637 58.3042C43.7637 59.2968 42.9516 60.0961 41.959 60.0961Z" fill="#F0BF5F"/>
<path d="M48.0305 43.2351C50.7375 43.2351 53.277 43.7894 55.4297 44.8464L52.916 33.9539C52.2199 31.2984 49.8094 29.4421 47.0637 29.4421H31.0922C28.643 29.4421 26.4387 30.9117 25.5106 33.1804L21.7594 43.2351H48.0305Z" fill="#CEE8FA"/>
<path d="M55.4296 46.6382C55.1589 46.6382 54.8882 46.5738 54.6433 46.4578C52.7355 45.5296 50.4409 45.0269 48.0304 45.0269H21.7593C21.1663 45.0269 20.6249 44.7433 20.2897 44.2535C19.9546 43.7765 19.8772 43.1578 20.0835 42.6035L23.8347 32.5488C23.8476 32.523 23.8476 32.5101 23.8605 32.4843C25.0722 29.5453 27.921 27.6375 31.105 27.6375H47.0765C50.6343 27.6375 53.7538 30.0351 54.6562 33.4769C54.6562 33.4898 54.669 33.5156 54.669 33.5285L57.1827 44.421C57.3374 45.0914 57.0925 45.8003 56.5511 46.2257C56.2288 46.5093 55.8292 46.6382 55.4296 46.6382ZM24.3503 41.4433H48.0433C49.7448 41.4433 51.3948 41.6496 52.9546 42.0492L51.1886 34.3921C50.6858 32.5359 48.9972 31.2468 47.0765 31.2468H31.0921C29.3776 31.2468 27.8437 32.2652 27.1733 33.8507L24.3503 41.4433Z" fill="#F0BF5F"/>
<path d="M41.9589 52.5679C40.9663 52.5679 40.1671 51.7686 40.1671 50.7761V30.1253C40.1671 29.1327 40.9663 28.3335 41.9589 28.3335C42.9515 28.3335 43.7507 29.1327 43.7507 30.1253V50.7632C43.7507 51.7686 42.9515 52.5679 41.9589 52.5679Z" fill="#F0BF5F"/>
<path d="M54.463 64.8656C50.5442 64.8656 47.3602 61.6816 47.3602 57.7629C47.3602 53.8441 50.5442 50.6602 54.463 50.6602C58.3817 50.6602 61.5657 53.8441 61.5657 57.7629C61.5657 61.6816 58.3817 64.8656 54.463 64.8656ZM54.463 54.2437C52.5294 54.2437 50.9438 55.8164 50.9438 57.7629C50.9438 59.7094 52.5165 61.282 54.463 61.282C56.3966 61.282 57.9821 59.7094 57.9821 57.7629C57.9821 55.8164 56.3966 54.2437 54.463 54.2437Z" fill="#2D527C"/>
<path d="M20.8441 64.8656C16.9253 64.8656 13.7413 61.6816 13.7413 57.7629C13.7413 53.8441 16.9253 50.6602 20.8441 50.6602C24.7628 50.6602 27.9468 53.8441 27.9468 57.7629C27.9597 61.6816 24.7628 64.8656 20.8441 64.8656ZM20.8441 54.2438C18.8976 54.2438 17.3249 55.8164 17.3249 57.7629C17.3249 59.7094 18.8976 61.282 20.8441 61.282C22.7905 61.282 24.3632 59.7094 24.3632 57.7629C24.3632 55.8164 22.7905 54.2438 20.8441 54.2438Z" fill="#2D527C"/>
<path d="M24.3891 25.7167H1.7918C0.799219 25.7167 0 24.9175 0 23.9249V2.92607C0 1.9335 0.799219 1.13428 1.7918 1.13428H24.3891C25.3816 1.13428 26.1809 1.9335 26.1809 2.92607V23.9249C26.1809 24.9175 25.3816 25.7167 24.3891 25.7167ZM3.58359 22.1331H22.5973V4.71787H3.58359V22.1331Z" fill="#2D527C"/>
<path d="M13.3289 7.25732H9.99021C9.30701 7.25732 8.79138 7.69561 8.79138 8.28857V18.5495C8.79138 19.1683 9.42302 19.5937 10.3125 19.5937C11.2148 19.5937 11.8336 19.1683 11.8336 18.5495V15.3397H13.1613C15.8554 15.3397 17.4023 13.8831 17.4023 11.3308V11.2534C17.4023 8.67529 15.9586 7.25732 13.3289 7.25732ZM13.1613 12.8519H11.8336V9.99014H13.1613C13.9605 9.99014 14.3472 10.4284 14.3472 11.3308V11.5112C14.3472 12.4136 13.9605 12.8519 13.1613 12.8519Z" fill="#2D527C"/>
<path d="M13.0839 40.7988C12.0913 40.7988 11.2921 39.9996 11.2921 39.007V24.157C11.2921 23.1645 12.0913 22.3652 13.0839 22.3652C14.0765 22.3652 14.8757 23.1645 14.8757 24.157V39.007C14.8886 39.9996 14.0765 40.7988 13.0839 40.7988Z" fill="#2D527C"/>
</g>
<defs>
<clipPath id="clip0_96182_462">
<rect width="66" height="66" fill="white"/>
</clipPath>
</defs>
</svg>
