<svg width="66" height="66" viewBox="0 0 66 66" fill="none" xmlns="http://www.w3.org/2000/svg">
<g clip-path="url(#clip0_96182_337)">
<path d="M38.4527 18.4851H19.207C18.1758 18.4851 17.3379 17.6472 17.3379 16.616C17.3379 15.5847 18.1758 14.7468 19.207 14.7468H38.4527C39.484 14.7468 40.3219 15.5847 40.3219 16.616C40.3219 17.6472 39.484 18.4851 38.4527 18.4851Z" fill="#2D527C"/>
<path d="M23.3191 49.4871H17.3766C7.79883 49.4871 0 41.6883 0 32.1106C0 25.7684 3.45469 19.9289 9.02344 16.8739C9.92578 16.3711 11.073 16.7063 11.5758 17.6215C12.0785 18.5239 11.7434 19.6711 10.8281 20.1739C6.4582 22.5715 3.75117 27.1477 3.75117 32.1235C3.75117 39.6387 9.86133 45.7489 17.3766 45.7489H23.3191C24.3504 45.7489 25.1883 46.5868 25.1883 47.618C25.2012 48.6364 24.3504 49.4871 23.3191 49.4871Z" fill="#2D527C"/>
<path d="M24.9176 63.2027C16.3711 63.2027 9.41016 56.2417 9.41016 47.6824C9.41016 46.6511 10.248 45.8132 11.2793 45.8132C12.3105 45.8132 13.1484 46.6511 13.1484 47.6824C13.1484 54.1664 18.4207 59.4515 24.9176 59.4515C31.4145 59.4515 36.6867 54.1792 36.6867 47.6824C36.6867 41.1984 31.4145 35.9132 24.9176 35.9132C21.6563 35.9132 18.627 37.2152 16.384 39.5742C15.675 40.3218 14.4891 40.3605 13.7285 39.6386C12.9809 38.9296 12.9422 37.7437 13.6641 36.9832C16.6289 33.8636 20.625 32.1492 24.9176 32.1492C33.477 32.1492 40.4379 39.1101 40.4379 47.6695C40.4379 56.2289 33.477 63.2027 24.9176 63.2027Z" fill="#F0BF5F"/>
<path d="M49.5645 45.7874H38.1176C37.0864 45.7874 36.2485 44.9495 36.2485 43.9182C36.2485 42.887 37.0864 42.0491 38.1176 42.0491H49.5645C50.5957 42.0491 51.4336 42.887 51.4336 43.9182C51.4336 44.9495 50.5957 45.7874 49.5645 45.7874Z" fill="#F0BF5F"/>
<path d="M61.8105 53.3286H38.5559C37.5246 53.3286 36.6867 52.4907 36.6867 51.4594C36.6867 50.4282 37.5246 49.5903 38.5559 49.5903H61.8105C62.0555 49.5903 62.2488 49.3969 62.2488 49.152V38.5043C62.2488 38.1434 61.9523 37.8598 61.6043 37.8598H59.9801C59.6191 37.8598 59.3355 38.1563 59.3355 38.5043V43.5059C59.3355 44.5372 58.4977 45.375 57.4664 45.375C56.4352 45.375 55.5973 44.5372 55.5973 43.5059V38.5043C55.5973 36.0809 57.5695 34.1086 59.993 34.1086H61.6172C64.0406 34.1086 66.0129 36.0809 66.0129 38.5043V49.152C66 51.4465 64.118 53.3286 61.8105 53.3286Z" fill="#F0BF5F"/>
<path d="M24.9176 52.9418C27.865 52.9418 30.2543 50.5524 30.2543 47.605C30.2543 44.6576 27.865 42.2683 24.9176 42.2683C21.9702 42.2683 19.5808 44.6576 19.5808 47.605C19.5808 50.5524 21.9702 52.9418 24.9176 52.9418Z" fill="#CEE8FA"/>
<path d="M24.9176 54.8109C20.9472 54.8109 17.7117 51.5753 17.7117 47.605C17.7117 43.6347 20.9472 40.3992 24.9176 40.3992C28.8879 40.3992 32.1234 43.6347 32.1234 47.605C32.1234 51.5753 28.9008 54.8109 24.9176 54.8109ZM24.9176 44.1503C23.0097 44.1503 21.4629 45.6972 21.4629 47.605C21.4629 49.5128 23.0097 51.0597 24.9176 51.0597C26.8254 51.0597 28.3723 49.5128 28.3723 47.605C28.3723 45.6972 26.8254 44.1503 24.9176 44.1503Z" fill="#F0BF5F"/>
<path d="M27.8953 24.5694V8.64951C27.8953 6.45811 29.6742 4.6792 31.8656 4.6792H60.1476C62.3391 4.6792 64.118 6.45811 64.118 8.64951V24.5694C64.118 26.7608 62.3391 28.5397 60.1476 28.5397H31.8785C29.6742 28.5397 27.8953 26.7608 27.8953 24.5694Z" fill="#CEE8FA"/>
<path d="M60.1476 30.422H31.8785C28.6558 30.422 26.0262 27.7923 26.0262 24.5696V8.64971C26.0262 5.42705 28.6558 2.79736 31.8785 2.79736H60.1605C63.3832 2.79736 66.0129 5.42705 66.0129 8.64971V24.5696C66 27.7923 63.3703 30.422 60.1476 30.422ZM31.8785 6.54853C30.7183 6.54853 29.7773 7.48955 29.7773 8.64971V24.5696C29.7773 25.7298 30.7183 26.6708 31.8785 26.6708H60.1605C61.3207 26.6708 62.2617 25.7298 62.2617 24.5696V8.64971C62.2617 7.48955 61.3207 6.54853 60.1605 6.54853H31.8785Z" fill="#2D527C"/>
<path d="M44.4468 17.7119H43.8152V16.5647C43.8152 15.9072 43.1578 15.4818 42.1394 15.4818C41.1211 15.4818 40.4636 15.9072 40.4636 16.5647V17.7119H39.3164L42.5519 11.215C42.6035 11.0861 42.6679 10.9314 42.6679 10.7768C42.6679 9.96465 41.5851 9.46191 40.9922 9.46191C40.3734 9.46191 39.8707 9.77129 39.5871 10.3256L35.2043 18.9494C35.0496 19.233 35.0238 19.4779 35.0238 19.6068C35.0238 20.3287 35.5008 20.8186 36.1968 20.8186H40.4636V22.649C40.4636 23.4096 41.3273 23.7447 42.1394 23.7447C42.9386 23.7447 43.8152 23.3967 43.8152 22.649V20.8186H44.4468C45.014 20.8186 45.5425 20.058 45.5425 19.2588C45.5425 18.5111 45.1945 17.7119 44.4468 17.7119Z" fill="#2D527C"/>
<path d="M55.8937 17.7119H55.2621V16.5647C55.2621 15.9072 54.6046 15.4818 53.5863 15.4818C52.5679 15.4818 51.9105 15.9072 51.9105 16.5647V17.7119H50.7632L54.0117 11.215C54.0632 11.0861 54.1277 10.9314 54.1277 10.7768C54.1277 9.96465 53.0449 9.46191 52.4519 9.46191C51.8332 9.46191 51.3304 9.77129 51.0468 10.3256L46.664 18.9494C46.5093 19.233 46.4836 19.4779 46.4836 19.6068C46.4836 20.3287 46.9605 20.8186 47.6566 20.8186H51.9234V22.649C51.9234 23.4096 52.7871 23.7447 53.5992 23.7447C54.4113 23.7447 55.275 23.3967 55.275 22.649V20.8186H55.9066C56.4738 20.8186 57.0023 20.058 57.0023 19.2588C57.0023 18.5111 56.6543 17.7119 55.8937 17.7119Z" fill="#2D527C"/>
</g>
<defs>
<clipPath id="clip0_96182_337">
<rect width="66" height="66" fill="white"/>
</clipPath>
</defs>
</svg>
